<mxfile host="Electron" modified="2024-05-28T09:38:42.278Z" agent="Mozilla/5.0 (Macintosh; Intel Mac OS X 10_15_7) AppleWebKit/537.36 (KHTML, like Gecko) draw.io/24.4.8 Chrome/124.0.6367.207 Electron/30.0.6 Safari/537.36" etag="y5WoA8hZ3-kzggMsyLmR" version="24.4.8" type="device">
  <diagram name="第 1 页" id="HFfraDqYdKVMddaYx8xQ">
    <mxGraphModel dx="1728" dy="1843" grid="1" gridSize="10" guides="1" tooltips="1" connect="1" arrows="1" fold="1" page="1" pageScale="1" pageWidth="827" pageHeight="1169" math="0" shadow="0">
      <root>
        <mxCell id="0" />
        <mxCell id="1" parent="0" />
        <mxCell id="K_8UJz3ojB3_6uihmHzc-1" value="&lt;font color=&quot;#000000&quot;&gt;service&lt;br&gt;(启动中)&lt;/font&gt;" style="rounded=1;whiteSpace=wrap;html=1;fillColor=#fff2cc;strokeColor=#d6b656;" vertex="1" parent="1">
          <mxGeometry x="-230" y="10" width="120" height="60" as="geometry" />
        </mxCell>
        <mxCell id="K_8UJz3ojB3_6uihmHzc-2" value="run.sh start" style="endArrow=classic;html=1;entryX=0;entryY=0.5;entryDx=0;entryDy=0;exitX=1;exitY=0.5;exitDx=0;exitDy=0;dashed=1;" edge="1" parent="1" source="K_8UJz3ojB3_6uihmHzc-3" target="K_8UJz3ojB3_6uihmHzc-1">
          <mxGeometry width="50" height="50" relative="1" as="geometry">
            <mxPoint x="-330" y="40" as="sourcePoint" />
            <mxPoint x="-340" as="targetPoint" />
          </mxGeometry>
        </mxCell>
        <mxCell id="K_8UJz3ojB3_6uihmHzc-3" value="" style="ellipse;whiteSpace=wrap;html=1;aspect=fixed;" vertex="1" parent="1">
          <mxGeometry x="-370" y="25" width="30" height="30" as="geometry" />
        </mxCell>
        <mxCell id="K_8UJz3ojB3_6uihmHzc-4" value="&lt;font color=&quot;#009900&quot;&gt;启动完成&lt;/font&gt;" style="endArrow=classic;html=1;entryX=0;entryY=0.5;entryDx=0;entryDy=0;" edge="1" parent="1" target="K_8UJz3ojB3_6uihmHzc-5">
          <mxGeometry width="50" height="50" relative="1" as="geometry">
            <mxPoint x="-110" y="40" as="sourcePoint" />
            <mxPoint x="-10" y="40" as="targetPoint" />
          </mxGeometry>
        </mxCell>
        <mxCell id="K_8UJz3ojB3_6uihmHzc-5" value="&lt;font color=&quot;#000000&quot;&gt;service&lt;br&gt;(运行中)&lt;/font&gt;" style="rounded=1;whiteSpace=wrap;html=1;fillColor=#d5e8d4;strokeColor=#82b366;" vertex="1" parent="1">
          <mxGeometry x="-10" y="10" width="120" height="60" as="geometry" />
        </mxCell>
        <mxCell id="K_8UJz3ojB3_6uihmHzc-6" value="&lt;font color=&quot;#000000&quot;&gt;service&lt;br&gt;(停止中)&lt;/font&gt;" style="rounded=1;whiteSpace=wrap;html=1;fillColor=#ffe6cc;strokeColor=#d79b00;" vertex="1" parent="1">
          <mxGeometry x="220" y="10" width="120" height="60" as="geometry" />
        </mxCell>
        <mxCell id="K_8UJz3ojB3_6uihmHzc-7" value="run.sh stop" style="endArrow=classic;html=1;dashed=1;exitX=1;exitY=0.5;exitDx=0;exitDy=0;entryX=0;entryY=0.5;entryDx=0;entryDy=0;" edge="1" parent="1" source="K_8UJz3ojB3_6uihmHzc-5" target="K_8UJz3ojB3_6uihmHzc-6">
          <mxGeometry width="50" height="50" relative="1" as="geometry">
            <mxPoint x="140" y="-20" as="sourcePoint" />
            <mxPoint x="190" y="-70" as="targetPoint" />
          </mxGeometry>
        </mxCell>
        <mxCell id="K_8UJz3ojB3_6uihmHzc-8" value="&lt;font color=&quot;#000000&quot;&gt;service&lt;br&gt;(停止)&lt;/font&gt;" style="rounded=1;whiteSpace=wrap;html=1;fillColor=#f8cecc;strokeColor=#b85450;" vertex="1" parent="1">
          <mxGeometry x="450" y="10" width="120" height="60" as="geometry" />
        </mxCell>
        <mxCell id="K_8UJz3ojB3_6uihmHzc-9" value="&lt;font color=&quot;#ff3333&quot;&gt;停止完成&lt;/font&gt;" style="endArrow=classic;html=1;dashed=1;entryX=0;entryY=0.5;entryDx=0;entryDy=0;" edge="1" parent="1" target="K_8UJz3ojB3_6uihmHzc-8">
          <mxGeometry width="50" height="50" relative="1" as="geometry">
            <mxPoint x="340" y="40" as="sourcePoint" />
            <mxPoint x="390" y="-10" as="targetPoint" />
          </mxGeometry>
        </mxCell>
        <mxCell id="K_8UJz3ojB3_6uihmHzc-10" value="" style="endArrow=classic;html=1;dashed=1;exitX=0.5;exitY=1;exitDx=0;exitDy=0;entryX=0.5;entryY=0;entryDx=0;entryDy=0;dashPattern=1 4;" edge="1" parent="1" source="K_8UJz3ojB3_6uihmHzc-1" target="K_8UJz3ojB3_6uihmHzc-11">
          <mxGeometry width="50" height="50" relative="1" as="geometry">
            <mxPoint x="-180" y="-40" as="sourcePoint" />
            <mxPoint x="-170" y="120" as="targetPoint" />
          </mxGeometry>
        </mxCell>
        <mxCell id="K_8UJz3ojB3_6uihmHzc-11" value="1、检查代码和配置" style="rounded=0;whiteSpace=wrap;html=1;fillColor=#fff2cc;strokeColor=#d6b656;gradientColor=#ffd966;" vertex="1" parent="1">
          <mxGeometry x="-230" y="120" width="120" height="40" as="geometry" />
        </mxCell>
        <mxCell id="K_8UJz3ojB3_6uihmHzc-12" value="" style="endArrow=none;html=1;dashed=1;dashPattern=1 4;" edge="1" parent="1">
          <mxGeometry width="50" height="50" relative="1" as="geometry">
            <mxPoint x="-390" y="90" as="sourcePoint" />
            <mxPoint x="730" y="90" as="targetPoint" />
          </mxGeometry>
        </mxCell>
        <mxCell id="K_8UJz3ojB3_6uihmHzc-13" value="" style="endArrow=none;dashed=1;html=1;strokeWidth=2;" edge="1" parent="1">
          <mxGeometry width="50" height="50" relative="1" as="geometry">
            <mxPoint x="-450" y="-50" as="sourcePoint" />
            <mxPoint x="680" y="-50" as="targetPoint" />
          </mxGeometry>
        </mxCell>
        <mxCell id="K_8UJz3ojB3_6uihmHzc-14" value="开发" style="shape=umlActor;verticalLabelPosition=bottom;verticalAlign=top;html=1;outlineConnect=0;" vertex="1" parent="1">
          <mxGeometry x="-300" y="-190" width="30" height="60" as="geometry" />
        </mxCell>
        <mxCell id="K_8UJz3ojB3_6uihmHzc-15" value="" style="endArrow=classic;html=1;dashed=1;entryX=0;entryY=0.5;entryDx=0;entryDy=0;" edge="1" parent="1" target="K_8UJz3ojB3_6uihmHzc-18">
          <mxGeometry width="50" height="50" relative="1" as="geometry">
            <mxPoint x="-270" y="-160" as="sourcePoint" />
            <mxPoint x="-180" y="-160" as="targetPoint" />
          </mxGeometry>
        </mxCell>
        <mxCell id="K_8UJz3ojB3_6uihmHzc-16" value="" style="endArrow=classic;html=1;dashed=1;entryX=0;entryY=0.5;entryDx=0;entryDy=0;exitX=1;exitY=0.5;exitDx=0;exitDy=0;" edge="1" parent="1" source="K_8UJz3ojB3_6uihmHzc-18" target="K_8UJz3ojB3_6uihmHzc-19">
          <mxGeometry width="50" height="50" relative="1" as="geometry">
            <mxPoint x="-60" y="-160" as="sourcePoint" />
            <mxPoint x="50" y="-160" as="targetPoint" />
          </mxGeometry>
        </mxCell>
        <mxCell id="K_8UJz3ojB3_6uihmHzc-17" value="" style="endArrow=classic;html=1;dashed=1;entryX=0;entryY=0.5;entryDx=0;entryDy=0;exitX=1;exitY=0.5;exitDx=0;exitDy=0;" edge="1" parent="1" source="K_8UJz3ojB3_6uihmHzc-19" target="K_8UJz3ojB3_6uihmHzc-20">
          <mxGeometry width="50" height="50" relative="1" as="geometry">
            <mxPoint x="170" y="-160" as="sourcePoint" />
            <mxPoint x="310" y="-160" as="targetPoint" />
          </mxGeometry>
        </mxCell>
        <mxCell id="K_8UJz3ojB3_6uihmHzc-18" value="&lt;span&gt;编写代码&lt;/span&gt;" style="rounded=1;whiteSpace=wrap;html=1;fillColor=#eeeeee;strokeColor=#36393d;" vertex="1" parent="1">
          <mxGeometry x="-160" y="-190" width="120" height="60" as="geometry" />
        </mxCell>
        <mxCell id="K_8UJz3ojB3_6uihmHzc-19" value="提交代码" style="rounded=1;whiteSpace=wrap;html=1;fillColor=#cce5ff;strokeColor=#36393d;" vertex="1" parent="1">
          <mxGeometry x="70" y="-190" width="120" height="60" as="geometry" />
        </mxCell>
        <mxCell id="K_8UJz3ojB3_6uihmHzc-20" value="推送仓库" style="rounded=1;whiteSpace=wrap;html=1;fillColor=#cdeb8b;strokeColor=#36393d;" vertex="1" parent="1">
          <mxGeometry x="310" y="-190" width="120" height="60" as="geometry" />
        </mxCell>
        <mxCell id="K_8UJz3ojB3_6uihmHzc-21" value="JMH测试" style="rounded=0;whiteSpace=wrap;html=1;gradientColor=#b3b3b3;fillColor=#f5f5f5;strokeColor=#666666;" vertex="1" parent="1">
          <mxGeometry x="-145" y="-100" width="90" height="30" as="geometry" />
        </mxCell>
        <mxCell id="K_8UJz3ojB3_6uihmHzc-22" value="" style="endArrow=classic;html=1;dashed=1;exitX=0.5;exitY=1;exitDx=0;exitDy=0;entryX=0.5;entryY=0;entryDx=0;entryDy=0;" edge="1" parent="1" source="K_8UJz3ojB3_6uihmHzc-18" target="K_8UJz3ojB3_6uihmHzc-21">
          <mxGeometry width="50" height="50" relative="1" as="geometry">
            <mxPoint x="-150" y="-200" as="sourcePoint" />
            <mxPoint x="-100" y="-250" as="targetPoint" />
          </mxGeometry>
        </mxCell>
        <mxCell id="K_8UJz3ojB3_6uihmHzc-23" value="规范message格式" style="rounded=0;whiteSpace=wrap;html=1;gradientColor=#7ea6e0;fillColor=#dae8fc;strokeColor=#6c8ebf;" vertex="1" parent="1">
          <mxGeometry x="77.5" y="-100" width="105" height="30" as="geometry" />
        </mxCell>
        <mxCell id="K_8UJz3ojB3_6uihmHzc-24" value="" style="endArrow=classic;html=1;dashed=1;exitX=0.5;exitY=1;exitDx=0;exitDy=0;entryX=0.5;entryY=0;entryDx=0;entryDy=0;" edge="1" parent="1" source="K_8UJz3ojB3_6uihmHzc-19" target="K_8UJz3ojB3_6uihmHzc-23">
          <mxGeometry width="50" height="50" relative="1" as="geometry">
            <mxPoint x="20" y="-250" as="sourcePoint" />
            <mxPoint x="70" y="-300" as="targetPoint" />
          </mxGeometry>
        </mxCell>
        <mxCell id="K_8UJz3ojB3_6uihmHzc-25" value="单元测试覆盖率检查" style="rounded=0;whiteSpace=wrap;html=1;gradientColor=#97d077;fillColor=#d5e8d4;strokeColor=#82b366;" vertex="1" parent="1">
          <mxGeometry x="307.5" y="-100" width="125" height="30" as="geometry" />
        </mxCell>
        <mxCell id="K_8UJz3ojB3_6uihmHzc-26" value="" style="endArrow=classic;html=1;dashed=1;exitX=0.5;exitY=1;exitDx=0;exitDy=0;entryX=0.5;entryY=0;entryDx=0;entryDy=0;" edge="1" parent="1" source="K_8UJz3ojB3_6uihmHzc-20" target="K_8UJz3ojB3_6uihmHzc-25">
          <mxGeometry width="50" height="50" relative="1" as="geometry">
            <mxPoint x="440" y="-200" as="sourcePoint" />
            <mxPoint x="490" y="-250" as="targetPoint" />
          </mxGeometry>
        </mxCell>
        <mxCell id="K_8UJz3ojB3_6uihmHzc-27" value="push推送" style="rounded=0;whiteSpace=wrap;html=1;gradientColor=#7ea6e0;fillColor=#dae8fc;strokeColor=#6c8ebf;" vertex="1" parent="1">
          <mxGeometry x="162.5" y="370" width="130" height="50" as="geometry" />
        </mxCell>
        <mxCell id="K_8UJz3ojB3_6uihmHzc-28" value="用户关系" style="rounded=0;whiteSpace=wrap;html=1;gradientColor=#ffd966;fillColor=#fff2cc;strokeColor=#d6b656;" vertex="1" parent="1">
          <mxGeometry x="510" y="370" width="130" height="50" as="geometry" />
        </mxCell>
        <mxCell id="K_8UJz3ojB3_6uihmHzc-29" value="用户信息" style="rounded=0;whiteSpace=wrap;html=1;gradientColor=#ffd966;fillColor=#fff2cc;strokeColor=#d6b656;" vertex="1" parent="1">
          <mxGeometry x="510" y="440" width="130" height="50" as="geometry" />
        </mxCell>
        <mxCell id="K_8UJz3ojB3_6uihmHzc-30" value="房间信息" style="rounded=0;whiteSpace=wrap;html=1;gradientColor=#ffd966;fillColor=#fff2cc;strokeColor=#d6b656;" vertex="1" parent="1">
          <mxGeometry x="510" y="510" width="130" height="50" as="geometry" />
        </mxCell>
        <mxCell id="K_8UJz3ojB3_6uihmHzc-31" value="内容安全检查" style="rounded=0;whiteSpace=wrap;html=1;gradientColor=#7ea6e0;fillColor=#dae8fc;strokeColor=#6c8ebf;" vertex="1" parent="1">
          <mxGeometry x="162.5" y="440" width="130" height="50" as="geometry" />
        </mxCell>
        <mxCell id="K_8UJz3ojB3_6uihmHzc-32" value="加密解密转换" style="rounded=0;whiteSpace=wrap;html=1;gradientColor=#7ea6e0;fillColor=#dae8fc;strokeColor=#6c8ebf;" vertex="1" parent="1">
          <mxGeometry x="162.5" y="510" width="130" height="50" as="geometry" />
        </mxCell>
        <mxCell id="K_8UJz3ojB3_6uihmHzc-33" value="发送短信" style="rounded=0;whiteSpace=wrap;html=1;gradientColor=#7ea6e0;fillColor=#dae8fc;strokeColor=#6c8ebf;" vertex="1" parent="1">
          <mxGeometry x="162.5" y="580" width="130" height="50" as="geometry" />
        </mxCell>
        <mxCell id="K_8UJz3ojB3_6uihmHzc-34" value="企业微信告警" style="rounded=0;whiteSpace=wrap;html=1;gradientColor=#7ea6e0;fillColor=#dae8fc;strokeColor=#6c8ebf;" vertex="1" parent="1">
          <mxGeometry x="320" y="580" width="130" height="50" as="geometry" />
        </mxCell>
        <mxCell id="K_8UJz3ojB3_6uihmHzc-35" value="缓存工具" style="rounded=0;whiteSpace=wrap;html=1;gradientColor=#b3b3b3;fillColor=#f5f5f5;strokeColor=#666666;" vertex="1" parent="1">
          <mxGeometry x="-325" y="370" width="130" height="50" as="geometry" />
        </mxCell>
        <mxCell id="K_8UJz3ojB3_6uihmHzc-36" value="异常处理工具" style="rounded=0;whiteSpace=wrap;html=1;gradientColor=#b3b3b3;fillColor=#f5f5f5;strokeColor=#666666;" vertex="1" parent="1">
          <mxGeometry x="-170" y="370" width="130" height="50" as="geometry" />
        </mxCell>
        <mxCell id="K_8UJz3ojB3_6uihmHzc-37" value="分布式锁" style="rounded=0;whiteSpace=wrap;html=1;gradientColor=#b3b3b3;fillColor=#f5f5f5;strokeColor=#666666;" vertex="1" parent="1">
          <mxGeometry x="-325" y="440" width="130" height="50" as="geometry" />
        </mxCell>
        <mxCell id="K_8UJz3ojB3_6uihmHzc-38" value="数据库切换通知" style="rounded=0;whiteSpace=wrap;html=1;gradientColor=#b3b3b3;fillColor=#f5f5f5;strokeColor=#666666;" vertex="1" parent="1">
          <mxGeometry x="-170" y="440" width="130" height="50" as="geometry" />
        </mxCell>
        <mxCell id="K_8UJz3ojB3_6uihmHzc-39" value="请求限流控制" style="rounded=0;whiteSpace=wrap;html=1;gradientColor=#b3b3b3;fillColor=#f5f5f5;strokeColor=#666666;" vertex="1" parent="1">
          <mxGeometry x="-325" y="510" width="130" height="50" as="geometry" />
        </mxCell>
        <mxCell id="K_8UJz3ojB3_6uihmHzc-40" value="aop日志打印" style="rounded=0;whiteSpace=wrap;html=1;gradientColor=#b3b3b3;fillColor=#f5f5f5;strokeColor=#666666;" vertex="1" parent="1">
          <mxGeometry x="-170" y="510" width="130" height="50" as="geometry" />
        </mxCell>
        <mxCell id="K_8UJz3ojB3_6uihmHzc-41" value="配置中心工具" style="rounded=0;whiteSpace=wrap;html=1;gradientColor=#b3b3b3;fillColor=#f5f5f5;strokeColor=#666666;" vertex="1" parent="1">
          <mxGeometry x="-325" y="580" width="130" height="50" as="geometry" />
        </mxCell>
        <mxCell id="K_8UJz3ojB3_6uihmHzc-42" value="灰度工具" style="rounded=0;whiteSpace=wrap;html=1;gradientColor=#b3b3b3;fillColor=#f5f5f5;strokeColor=#666666;" vertex="1" parent="1">
          <mxGeometry x="-170" y="580" width="130" height="50" as="geometry" />
        </mxCell>
        <mxCell id="K_8UJz3ojB3_6uihmHzc-43" value="接口阻断工具" style="rounded=0;whiteSpace=wrap;html=1;gradientColor=#b3b3b3;fillColor=#f5f5f5;strokeColor=#666666;" vertex="1" parent="1">
          <mxGeometry x="-325" y="650" width="130" height="50" as="geometry" />
        </mxCell>
        <mxCell id="K_8UJz3ojB3_6uihmHzc-44" value="CDN头支持" style="rounded=0;whiteSpace=wrap;html=1;gradientColor=#b3b3b3;fillColor=#f5f5f5;strokeColor=#666666;" vertex="1" parent="1">
          <mxGeometry x="-170" y="650" width="130" height="50" as="geometry" />
        </mxCell>
        <mxCell id="K_8UJz3ojB3_6uihmHzc-45" value="跨域支持" style="rounded=0;whiteSpace=wrap;html=1;gradientColor=#b3b3b3;fillColor=#f5f5f5;strokeColor=#666666;" vertex="1" parent="1">
          <mxGeometry x="-325" y="720" width="130" height="50" as="geometry" />
        </mxCell>
        <mxCell id="K_8UJz3ojB3_6uihmHzc-46" value="接口签名支持" style="rounded=0;whiteSpace=wrap;html=1;gradientColor=#b3b3b3;fillColor=#f5f5f5;strokeColor=#666666;" vertex="1" parent="1">
          <mxGeometry x="-170" y="720" width="130" height="50" as="geometry" />
        </mxCell>
        <mxCell id="K_8UJz3ojB3_6uihmHzc-47" value="用户token校验" style="rounded=0;whiteSpace=wrap;html=1;gradientColor=#7ea6e0;fillColor=#dae8fc;strokeColor=#6c8ebf;" vertex="1" parent="1">
          <mxGeometry x="320" y="370" width="130" height="50" as="geometry" />
        </mxCell>
        <mxCell id="K_8UJz3ojB3_6uihmHzc-48" value="用户封禁检查" style="rounded=0;whiteSpace=wrap;html=1;gradientColor=#7ea6e0;fillColor=#dae8fc;strokeColor=#6c8ebf;" vertex="1" parent="1">
          <mxGeometry x="320" y="440" width="130" height="50" as="geometry" />
        </mxCell>
        <mxCell id="K_8UJz3ojB3_6uihmHzc-49" value="并发相关工具类" style="rounded=0;whiteSpace=wrap;html=1;gradientColor=#b3b3b3;fillColor=#f5f5f5;strokeColor=#666666;" vertex="1" parent="1">
          <mxGeometry x="-15" y="580" width="130" height="50" as="geometry" />
        </mxCell>
        <mxCell id="K_8UJz3ojB3_6uihmHzc-50" value="停止" style="ellipse;whiteSpace=wrap;html=1;aspect=fixed;fillColor=#fad9d5;strokeColor=#ae4132;" vertex="1" parent="1">
          <mxGeometry x="-195" y="260" width="50" height="50" as="geometry" />
        </mxCell>
        <mxCell id="K_8UJz3ojB3_6uihmHzc-51" value="不通过" style="endArrow=classic;html=1;dashed=1;exitX=0.5;exitY=1;exitDx=0;exitDy=0;entryX=0.5;entryY=0;entryDx=0;entryDy=0;" edge="1" parent="1" source="K_8UJz3ojB3_6uihmHzc-11" target="K_8UJz3ojB3_6uihmHzc-50">
          <mxGeometry width="50" height="50" relative="1" as="geometry">
            <mxPoint x="-20" y="200" as="sourcePoint" />
            <mxPoint x="-160" y="250" as="targetPoint" />
          </mxGeometry>
        </mxCell>
        <mxCell id="K_8UJz3ojB3_6uihmHzc-52" value="Redis数据异地IDC同步" style="rounded=0;whiteSpace=wrap;html=1;gradientColor=#b3b3b3;fillColor=#f5f5f5;strokeColor=#666666;" vertex="1" parent="1">
          <mxGeometry x="-15" y="510" width="130" height="50" as="geometry" />
        </mxCell>
        <mxCell id="K_8UJz3ojB3_6uihmHzc-53" value="系统消息和站内信" style="rounded=0;whiteSpace=wrap;html=1;gradientColor=#7ea6e0;fillColor=#dae8fc;strokeColor=#6c8ebf;" vertex="1" parent="1">
          <mxGeometry x="320" y="510" width="130" height="50" as="geometry" />
        </mxCell>
        <mxCell id="K_8UJz3ojB3_6uihmHzc-54" value="日月年表检查" style="rounded=0;whiteSpace=wrap;html=1;gradientColor=#b3b3b3;fillColor=#f5f5f5;strokeColor=#666666;" vertex="1" parent="1">
          <mxGeometry x="-15" y="370" width="130" height="50" as="geometry" />
        </mxCell>
        <mxCell id="K_8UJz3ojB3_6uihmHzc-55" value="接口错误提示可配置" style="rounded=0;whiteSpace=wrap;html=1;gradientColor=#b3b3b3;fillColor=#f5f5f5;strokeColor=#666666;" vertex="1" parent="1">
          <mxGeometry x="-15" y="440" width="130" height="50" as="geometry" />
        </mxCell>
        <mxCell id="K_8UJz3ojB3_6uihmHzc-56" value="" style="endArrow=none;dashed=1;html=1;strokeWidth=2;" edge="1" parent="1">
          <mxGeometry width="50" height="50" relative="1" as="geometry">
            <mxPoint x="-450" y="-250" as="sourcePoint" />
            <mxPoint x="680" y="-250" as="targetPoint" />
          </mxGeometry>
        </mxCell>
        <mxCell id="K_8UJz3ojB3_6uihmHzc-57" value="一&lt;br&gt;&lt;br&gt;公共库开发" style="ellipse;whiteSpace=wrap;html=1;aspect=fixed;fillColor=#dae8fc;strokeColor=#6c8ebf;" vertex="1" parent="1">
          <mxGeometry x="-450" y="-200" width="80" height="80" as="geometry" />
        </mxCell>
        <mxCell id="K_8UJz3ojB3_6uihmHzc-58" value="二&lt;br&gt;&lt;br&gt;服务运行" style="ellipse;whiteSpace=wrap;html=1;aspect=fixed;fillColor=#dae8fc;strokeColor=#6c8ebf;" vertex="1" parent="1">
          <mxGeometry x="-450" y="80" width="80" height="80" as="geometry" />
        </mxCell>
        <mxCell id="K_8UJz3ojB3_6uihmHzc-59" value="" style="endArrow=none;dashed=1;html=1;strokeWidth=2;" edge="1" parent="1">
          <mxGeometry width="50" height="50" relative="1" as="geometry">
            <mxPoint x="-450" y="320" as="sourcePoint" />
            <mxPoint x="680" y="320" as="targetPoint" />
          </mxGeometry>
        </mxCell>
        <mxCell id="K_8UJz3ojB3_6uihmHzc-60" value="熔断降级" style="rounded=0;whiteSpace=wrap;html=1;gradientColor=#b3b3b3;fillColor=#f5f5f5;strokeColor=#666666;" vertex="1" parent="1">
          <mxGeometry x="-15" y="650" width="130" height="50" as="geometry" />
        </mxCell>
        <mxCell id="K_8UJz3ojB3_6uihmHzc-61" value="三&lt;br&gt;&lt;br&gt;抽象组件" style="ellipse;whiteSpace=wrap;html=1;aspect=fixed;fillColor=#dae8fc;strokeColor=#6c8ebf;" vertex="1" parent="1">
          <mxGeometry x="-450" y="470" width="80" height="80" as="geometry" />
        </mxCell>
        <mxCell id="K_8UJz3ojB3_6uihmHzc-62" value="" style="endArrow=none;dashed=1;html=1;strokeWidth=2;" edge="1" parent="1">
          <mxGeometry width="50" height="50" relative="1" as="geometry">
            <mxPoint x="-450" y="810" as="sourcePoint" />
            <mxPoint x="680" y="810" as="targetPoint" />
          </mxGeometry>
        </mxCell>
        <mxCell id="K_8UJz3ojB3_6uihmHzc-63" value="&lt;font style=&quot;font-size: 18px&quot;&gt;. . .&lt;/font&gt;" style="rounded=0;whiteSpace=wrap;html=1;gradientColor=#ffd966;fillColor=#fff2cc;strokeColor=#d6b656;" vertex="1" parent="1">
          <mxGeometry x="510" y="580" width="130" height="50" as="geometry" />
        </mxCell>
        <mxCell id="K_8UJz3ojB3_6uihmHzc-64" value="1、接口阻断检查" style="rounded=0;whiteSpace=wrap;html=1;fillColor=#d5e8d4;strokeColor=#82b366;gradientColor=#97d077;" vertex="1" parent="1">
          <mxGeometry x="-10" y="120" width="120" height="40" as="geometry" />
        </mxCell>
        <mxCell id="K_8UJz3ojB3_6uihmHzc-65" value="" style="endArrow=classic;html=1;dashed=1;exitX=0.5;exitY=1;exitDx=0;exitDy=0;entryX=0.5;entryY=0;entryDx=0;entryDy=0;dashPattern=1 4;" edge="1" parent="1" source="K_8UJz3ojB3_6uihmHzc-5" target="K_8UJz3ojB3_6uihmHzc-64">
          <mxGeometry width="50" height="50" relative="1" as="geometry">
            <mxPoint x="-160" y="80" as="sourcePoint" />
            <mxPoint x="-160" y="130" as="targetPoint" />
          </mxGeometry>
        </mxCell>
        <mxCell id="K_8UJz3ojB3_6uihmHzc-66" value="2、登录态检查" style="rounded=0;whiteSpace=wrap;html=1;fillColor=#d5e8d4;strokeColor=#82b366;gradientColor=#97d077;" vertex="1" parent="1">
          <mxGeometry x="-10" y="190" width="120" height="40" as="geometry" />
        </mxCell>
        <mxCell id="K_8UJz3ojB3_6uihmHzc-67" value="" style="endArrow=classic;html=1;dashed=1;exitX=0.5;exitY=1;exitDx=0;exitDy=0;entryX=0.5;entryY=0;entryDx=0;entryDy=0;dashPattern=1 4;" edge="1" parent="1" source="K_8UJz3ojB3_6uihmHzc-64" target="K_8UJz3ojB3_6uihmHzc-66">
          <mxGeometry width="50" height="50" relative="1" as="geometry">
            <mxPoint x="60" y="80" as="sourcePoint" />
            <mxPoint x="60" y="130" as="targetPoint" />
          </mxGeometry>
        </mxCell>
        <mxCell id="K_8UJz3ojB3_6uihmHzc-68" value="&lt;font style=&quot;font-size: 17px&quot;&gt;. . .&lt;/font&gt;" style="rounded=0;whiteSpace=wrap;html=1;fillColor=#d5e8d4;strokeColor=#82b366;gradientColor=#97d077;" vertex="1" parent="1">
          <mxGeometry x="-10" y="260" width="120" height="40" as="geometry" />
        </mxCell>
        <mxCell id="K_8UJz3ojB3_6uihmHzc-69" value="" style="endArrow=classic;html=1;dashed=1;entryX=0.5;entryY=0;entryDx=0;entryDy=0;dashPattern=1 4;" edge="1" parent="1" target="K_8UJz3ojB3_6uihmHzc-68">
          <mxGeometry width="50" height="50" relative="1" as="geometry">
            <mxPoint x="50" y="230" as="sourcePoint" />
            <mxPoint x="60" y="200" as="targetPoint" />
          </mxGeometry>
        </mxCell>
        <mxCell id="K_8UJz3ojB3_6uihmHzc-70" value="执行钩子注册任务" style="rounded=0;whiteSpace=wrap;html=1;fillColor=#fff2cc;strokeColor=#d6b656;gradientColor=#ffd966;" vertex="1" parent="1">
          <mxGeometry x="220" y="120" width="120" height="40" as="geometry" />
        </mxCell>
        <mxCell id="K_8UJz3ojB3_6uihmHzc-71" value="" style="endArrow=classic;html=1;dashed=1;dashPattern=1 4;exitX=0.5;exitY=1;exitDx=0;exitDy=0;entryX=0.5;entryY=0;entryDx=0;entryDy=0;" edge="1" parent="1" source="K_8UJz3ojB3_6uihmHzc-6" target="K_8UJz3ojB3_6uihmHzc-70">
          <mxGeometry width="50" height="50" relative="1" as="geometry">
            <mxPoint x="450" y="160" as="sourcePoint" />
            <mxPoint x="500" y="110" as="targetPoint" />
          </mxGeometry>
        </mxCell>
      </root>
    </mxGraphModel>
  </diagram>
</mxfile>
